#!OML:ASF I:\Actors\actors\Patient Classification 1\Patient 1\Session 1\Subject1.ASF
:FULLY-SPECIFIED
:DEGREES
176
root -0.6557 17.5454 7.81317 7.39655 -2.04618 -7.8411
lowerback 5.12053 0.519912 5.79203
upperback -6.77065 1.44812 1.91991
thorax -10.0206 0.357976 -1.38729
lowerneck -14.6147 -2.38411 -0.00433477
upperneck 30.0724 -4.56115 3.28246
head 12.4652 -1.61117 0.568074
rclavicle 1.66358e-014 -1.19271e-014
rhumerus -11.3783 33.354 -83.8621
rradius 87.8005
rwrist 0.802011
rhand -7.20588 -48.822
rfingers 7.12502
rthumb 18.6728 -77.9458
lclavicle 1.66358e-014 -1.19271e-014
lhumerus -30.6142 -16.5999 94.9744
lradius 98.2846
lwrist 33.9669
lhand -32.7919 -3.22916
lfingers 7.12502
lthumb -6.01333 26.6655
rfemur -3.79687 22.667 25.1009
rtibia 3.63852
rfoot -9.73492 -23.8971
rtoes 1.47178
lfemur 4.49443 -38.4181 -12.3215
ltibia -3.31532
lfoot -17.3003 49.1053
ltoes 8.74059
177
root -0.657428 17.5458 7.79644 7.33533 -2.22339 -7.78644
lowerback 4.97189 0.606353 5.85103
upperback -6.84394 1.55815 1.87409
thorax -10.0038 0.404317 -1.48138
lowerneck -14.3825 -2.28342 0.145255
upperneck 30.2144 -4.4363 3.20838
head 12.4657 -1.54852 0.536305
rclavicle 4.84538e-016 -1.64991e-014
rhumerus -11.1738 34.3245 -84.2063
rradius 88.1823
rwrist 2.15474
rhand -7.94086 -48.2887
rfingers 7.12502
rthumb 17.9657 -77.4789
lclavicle 4.84538e-016 -1.64991e-014
lhumerus -30.5476 -17.0859 95.2965
lradius 97.8115
lwrist 33.4572
lhand -33.9041 -3.76652
lfingers 7.12502
lthumb -7.08698 26.0948
rfemur -3.86739 22.5638 25.0183
rtibia 3.75202
rfoot -9.70178 -23.6328
rtoes 1.4183
lfemur 4.39474 -37.9497 -12.3082
ltibia -3.21948
lfoot -17.0527 48.8325
ltoes 8.46593
178
root -0.658843 17.5479 7.77969 7.2905 -2.37886 -7.69415
lowerback 4.83309 0.664918 5.88772
upperback -6.90065 1.6277 1.82273
thorax -9.97691 0.432916 -1.56347
lowerneck -14.3064 -2.10985 0.263061
upperneck 30.4075 -4.18553 3.09021
head 12.517 -1.43585 0.510041
rclavicle -2.53326e-014 5.52621e-014
rhumerus -10.787 35.2616 -84.4304
rradius 88.5337
rwrist 4.4638
rhand -8.19398 -47.1286
rfingers 7.12502
rthumb 17.7222 -76.341
lclavicle -2.53326e-014 5.52621e-014
lhumerus -30.4683 -17.688 95.5164
lradius 97.4151
lwrist 33.0537
lhand -35.1197 -3.9639
lfingers 7.12502
lthumb -8.26028 25.8546
rfemur -3.90927 22.5478 24.8932
rtibia 3.7711
rfoot -9.64381 -23.4812
rtoes 1.23403
lfemur 4.2949 -37.6433 -12.3615
ltibia -3.12303
lfoot -16.8335 48.6983
ltoes 8.34129
179
root -0.659161 17.5501 7.76393 7.26519 -2.48275 -7.6293
lowerback 4.78418 0.689125 5.88193
upperback -6.99578 1.66504 1.87108
thorax -10.0531 0.450102 -1.51238
lowerneck -14.1755 -1.95703 0.361024
upperneck 30.5123 -3.89744 2.79845
head 12.516 -1.3342 0.426669
rclavicle 2.75814e-015 -9.93923e-015
rhumerus -10.321 36.2319 -84.3814
rradius 88.8801
rwrist 7.39
rhand -7.22219 -45.3942
rfingers 7.12502
rthumb 18.6571 -74.5195
lclavicle 2.75814e-015 -9.93923e-015
lhumerus -30.5197 -18.2915 95.8535
lradius 97.1174
lwrist 32.712
lhand -36.0795 -4.35701
lfingers 7.12502
lthumb -9.18653 25.4229
rfemur -3.92974 22.5723 24.7979
rtibia 3.70393
rfoot -9.55061 -23.4191
rtoes 1.04563
lfemur 4.18092 -37.4133 -12.3652
ltibia -3.04676
lfoot -16.6513 48.578
ltoes 8.32343
180
root -0.658215 17.5514 7.75054 7.28749 -2.47972 -7.56116
lowerback 4.70537 0.655778 5.80907
upperback -7.14635 1.62552 1.9931
thorax -10.1823 0.436332 -1.33437
lowerneck -14.0509 -1.7905 0.506636
upperneck 30.7371 -3.54236 2.30397
head 12.5597 -1.22188 0.267321
rclavicle -5.2181e-016 2.15681e-014
rhumerus -9.87761 37.406 -84.1897
rradius 89.2469
rwrist 9.87362
rhand -4.82388 -43.3091
rfingers 7.12502
rthumb 20.9626 -72.1963
lclavicle -5.2181e-016 2.15681e-014
lhumerus -30.848 -18.879 96.3306
lradius 96.9913
lwrist 32.4381
lhand -36.4404 -4.83518
lfingers 7.12502
lthumb -9.53477 24.9291
rfemur -3.95028 22.6187 24.6814
rtibia 3.55652
rfoot -9.5073 -23.4691
rtoes 1.23569
lfemur 4.01854 -37.3895 -12.3592
ltibia -2.96603
lfoot -16.627 48.5373
ltoes 8.42123
181
root -0.657844 17.5535 7.73909 7.31196 -2.47076 -7.43765
lowerback 4.55934 0.610281 5.631
upperback -7.27771 1.55287 2.11268
thorax -10.2524 0.416731 -1.09507
lowerneck -13.8896 -1.60337 0.786197
upperneck 30.9519 -3.14407 1.66285
head 12.5887 -1.09476 0.0346214
rclavicle -7.80851e-015 3.34952e-014
rhumerus -9.34021 39.0688 -83.8994
rradius 89.7374
rwrist 10.8648
rhand -2.25431 -41.7324
rfingers 7.12502
rthumb 23.4295 -70.326
lclavicle -7.80851e-015 3.34952e-014
lhumerus -31.2742 -19.6322 96.8835
lradius 96.9854
lwrist 32.2332
lhand -36.3769 -5.22906
lfingers 7.12502
lthumb -9.47344 24.538
rfemur -3.96326 22.666 24.4933
rtibia 3.42044
rfoot -9.57583 -23.5147
rtoes 1.69324
lfemur 3.93683 -37.5799 -12.4931
ltibia -2.91257
lfoot -16.8082 48.6813
ltoes 8.59664
182
root -0.657585 17.5555 7.72901 7.29198 -2.52439 -7.38477
lowerback 4.38406 0.588387 5.58651
upperback -7.33503 1.51535 2.19639
thorax -10.2166 0.406013 -0.973165
lowerneck -13.6379 -1.43463 0.925675
upperneck 30.9929 -2.82539 1.3343
head 12.5409 -0.981427 -0.0657078
rclavicle -1.89156e-015 2.39039e-014
rhumerus -8.62345 41.1783 -83.5409
rradius 90.2881
rwrist 10.7077
rhand -0.569519 -40.8785
rfingers 7.12502
rthumb 25.0448 -69.2565
lclavicle -1.89156e-015 2.39039e-014
lhumerus -31.5914 -20.7096 97.4399
lradius 97.0028
lwrist 32.2017
lhand -36.0041 -5.55492
lfingers 7.12502
lthumb -9.11373 24.2282
rfemur -3.93251 22.7012 24.4074
rtibia 3.32948
rfoot -9.65606 -23.4788
rtoes 1.76115
lfemur 4.01495 -37.7827 -12.628
ltibia -2.94125
lfoot -17.1074 48.8912
ltoes 8.99964
183
root -0.656451 17.5557 7.72001 7.26652 -2.61186 -7.38886
lowerback 4.15298 0.608213 5.74145
upperback -7.34688 1.53783 2.19394
thorax -10.0877 0.407903 -1.06166
lowerneck -13.5327 -1.28548 0.943439
upperneck 31.0989 -2.60158 1.30175
head 12.5605 -0.883119 -0.0477016
rclavicle -1.56791e-014 1.24737e-014
rhumerus -7.86867 43.3529 -83.2279
rradius 90.7287
rwrist 10.6103
rhand 0.368033 -40.3732
rfingers 7.12502
rthumb 25.9428 -68.6228
lclavicle -1.56791e-014 1.24737e-014
lhumerus -31.8212 -22.1135 98.029
lradius 96.9615
lwrist 32.2506
lhand -35.6742 -5.60945
lfingers 7.12502
lthumb -8.79538 24.1873
rfemur -3.89727 22.7441 24.3939
rtibia 3.25667
rfoot -9.73109 -23.4255
rtoes 1.80045
lfemur 4.15399 -37.9721 -12.7258
ltibia -3.00666
lfoot -17.6658 49.0837
ltoes 10.0578
184
root -0.65453 17.5542 7.70955 7.25184 -2.75947 -7.39894
lowerback 3.9671 0.667695 5.85219
upperback -7.38216 1.61526 2.20422
thorax -10.0098 0.439038 -1.119
lowerneck -13.4669 -1.13153 1.20581
upperneck 31.2922 -2.33683 0.949364
head 12.6158 -0.778151 -0.189158
rclavicle 3.97694e-014 -1.41137e-014
rhumerus -7.18081 45.5695 -82.9031
rradius 91.0611
rwrist 11.0652
rhand 0.803273 -40.2627
rfingers 7.12502
rthumb 26.3595 -68.4506
lclavicle 3.97694e-014 -1.41137e-014
lhumerus -32.1079 -23.532 98.8366
lradius 96.844
lwrist 32.1724
lhand -35.7774 -5.59113
lfingers 7.12502
lthumb -8.89505 24.2014
rfemur -3.95923 22.7291 24.3641
rtibia 3.30249
rfoot -9.79166 -23.2701
rtoes 1.89674
lfemur 4.30188 -38.201 -12.8333
ltibia -3.05746
lfoot -18.2244 49.3675
ltoes 10.888
185
root -0.6503 17.5515 7.69733 7.19819 -2.98553 -7.41575
lowerback 3.91164 0.750395 5.87648
upperback -7.43767 1.7327 2.26745
thorax -10.0333 0.495797 -1.0781
lowerneck -13.3626 -0.985852 1.42815
upperneck 31.5058 -2.07086 0.595734
head 12.674 -0.677471 -0.324319
rclavicle -5.50773e-015 -1.03772e-014
rhumerus -6.8886 47.3667 -82.9336
rradius 91.2789
rwrist 12.2082
rhand 1.34806 -39.8936
rfingers 7.12502
rthumb 26.8809 -68.0024
lclavicle -5.50773e-015 -1.03772e-014
lhumerus -32.4274 -24.761 99.847
lradius 96.6348
lwrist 32.0519
lhand -36.0418 -5.76505
lfingers 7.12502
lthumb -9.15013 24.0164
rfemur -4.06578 22.66 24.3417
rtibia 3.46881
rfoot -9.74381 -22.9974
rtoes 1.36534
lfemur 4.49009 -38.2968 -12.9595
ltibia -3.10593
lfoot -18.3184 49.6498
ltoes 10.687
186
root -0.646596 17.5501 7.685 7.07573 -3.35846 -7.36596
lowerback 3.62446 0.895322 5.64559
upperback -7.27391 1.8877 2.42573
thorax -9.67751 0.607335 -0.795429
lowerneck -13.438 -0.888527 1.2729
upperneck 31.6141 -1.86987 0.543365
head 12.7363 -0.611236 -0.288882
rclavicle 4.29872e-015 4.32357e-014
rhumerus -6.85513 48.1715 -83.3134
rradius 91.2915
rwrist 13.8334
rhand 2.16908 -38.7668
rfingers 7.12502
rthumb 27.6663 -66.7522
lclavicle 4.29872e-015 4.32357e-014
lhumerus -32.3631 -25.7557 100.918
lradius 96.3778
lwrist 31.871
lhand -36.1427 -6.11217
lfingers 7.12502
lthumb -9.24754 23.665
rfemur -4.13762 22.6304 24.2695
rtibia 3.70573
rfoot -9.70001 -22.6295
rtoes 0.779672
lfemur 4.80616 -38.2329 -13.2414
ltibia -3.18081
lfoot -18.4298 49.881
ltoes 10.5692
187
root -0.644929 17.5501 7.67277 6.92888 -3.80859 -7.29848
lowerback 3.66066 1.05933 5.56329
upperback -7.24836 2.10383 2.43714
thorax -9.66093 0.719913 -0.763379
lowerneck -13.4956 -0.772769 1.23846
upperneck 31.819 -1.69845 0.557549
head 12.8352 -0.534269 -0.253149
rclavicle -1.46604e-015 3.35946e-014
rhumerus -5.04291 50.4716 -82.0632
rradius 91.1298
rwrist 13.6594
rhand 0.873699 -39.7558
rfingers 7.12502
rthumb 26.427 -67.9337
lclavicle -1.46604e-015 3.35946e-014
lhumerus -32.6644 -26.5864 101.991
lradius 96.2861
lwrist 31.1241
lhand -36.935 -6.60672
lfingers 7.12502
lthumb -10.0119 23.1351
rfemur -4.23293 22.6059 24.1842
rtibia 4.02994
rfoot -9.74723 -22.1897
rtoes 0.554081
lfemur 5.14997 -38.1374 -13.5653
ltibia -3.22297
lfoot -18.7275 50.1187
ltoes 10.8709
188
root -0.638732 17.5498 7.66143 6.83209 -4.08806 -7.26665
lowerback 3.79175 1.16974 5.72205
upperback -7.31696 2.27501 2.3685
thorax -9.80017 0.783675 -0.947334
lowerneck -13.4238 -0.627469 1.48159
upperneck 31.9943 -1.49825 0.392749
head 12.8904 -0.435809 -0.329616
rclavicle 1.64184e-014 4.17448e-015
rhumerus -4.74197 51.3368 -82.3424
rradius 90.6303
rwrist 14.1786
rhand -1.29352 -40.4926
rfingers 7.12502
rthumb 24.3508 -68.9656
lclavicle 1.64184e-014 4.17448e-015
lhumerus -33.2192 -27.1157 103.081
lradius 96.334
lwrist 29.4982
lhand -38.7398 -7.42079
lfingers 7.12502
lthumb -11.7528 22.2295
rfemur -4.3977 22.4471 24.1016
rtibia 4.36209
rfoot -9.8058 -21.7953
rtoes 0.226213
lfemur 5.27716 -38.0151 -13.7297
ltibia -3.15504
lfoot -18.9076 50.1996
ltoes 10.9919
189
root -0.629678 17.5497 7.65104 6.77975 -4.32791 -7.21287
lowerback 3.82055 1.27553 5.8706
upperback -7.36187 2.43072 2.31483
thorax -9.85234 0.843681 -1.10595
lowerneck -13.3996 -0.502534 1.73048
upperneck 32.1599 -1.28929 0.10734
head 12.9516 -0.348616 -0.453063
rclavicle 3.88873e-015 5.89397e-014
rhumerus -5.60996 50.752 -83.8229
rradius 89.6718
rwrist 15.0146
rhand -3.36333 -40.1465
rfingers 7.12502
rthumb 22.3652 -68.8719
lclavicle 3.88873e-015 5.89397e-014
lhumerus -33.8252 -27.2196 104.153
lradius 96.5414
lwrist 27.405
lhand -40.7108 -8.44563
lfingers 7.12502
lthumb -13.6529 21.0866
rfemur -4.60944 22.1925 23.9617
rtibia 4.67116
rfoot -9.82112 -21.3706
rtoes -0.118812
lfemur 5.34136 -37.9135 -13.8929
ltibia -3.08167
lfoot -19.2189 50.2499
ltoes 11.2845
